<svg width="60" height="60" viewBox="0 0 60 60" fill="none" xmlns="http://www.w3.org/2000/svg">
<g clip-path="url(#clip0_433_708)">
<path d="M58.8117 7.37545C58.7925 7.33528 58.7733 7.29381 58.7554 7.25364C57.4967 4.60123 55.357 2.45675 52.7218 1.20635C51.2877 0.524781 49.7063 0.108844 48.0392 0.0194363C48.0366 0.0194363 48.0328 0.0168448 48.0302 0.0194363C47.8074 0.00647878 47.5821 0 47.3567 0H12.6433C12.1951 0 11.7508 0.0233236 11.3129 0.0699708H11.3091C9.93 0.216391 8.61625 0.588273 7.40493 1.14545C4.68394 2.40104 2.48154 4.60123 1.20492 7.33528C1.18571 7.37545 1.1665 7.41561 1.14986 7.45708C0.655598 8.54551 0.306031 9.71817 0.130607 10.9478V10.9517C0.0448162 11.553 0 12.1684 0 12.793V47.2057C0 47.9495 0.0627428 48.6803 0.185667 49.3903V49.3942C0.381578 50.5552 0.734987 51.6618 1.219 52.6932C1.22797 52.7127 1.23565 52.7295 1.24461 52.7489C2.53916 55.4674 4.75436 57.6547 7.48431 58.8908C8.88258 59.5232 10.4179 59.9093 12.0312 59.9857H12.0466C12.2451 59.9961 12.4448 60.0013 12.6446 60.0013H47.358C47.7985 60.0013 48.2313 59.978 48.6615 59.9326H48.6705C50.1379 59.7797 51.5323 59.3729 52.8064 58.7561C55.43 57.4862 57.553 55.3301 58.7951 52.6686C58.804 52.6518 58.8117 52.6323 58.8207 52.6129C59.5787 50.9699 60.0026 49.139 60.0026 47.207V12.7943C60.0026 10.8571 59.5774 9.02106 58.8143 7.37545H58.8117Z" fill="#2D3B8E"/>
<path d="M28.6658 23.8912L22.9446 30.6744L15.8291 24.5287L21.5502 17.7454C23.3749 15.5815 26.4544 15.2005 28.4173 16.8954C29.3982 17.7428 29.9129 18.9517 29.9667 20.2164C30.0038 21.4836 29.58 22.8092 28.667 23.8912H28.6658Z" fill="#19D8EA"/>
<path d="M22.9448 30.6745L17.2314 37.4487C15.399 39.6217 12.3272 39.9935 10.3642 38.2987C8.40129 36.6038 8.28221 33.4759 10.1158 31.3029L15.8293 24.5287L22.9448 30.6745Z" fill="#19D8EA"/>
<path d="M44.564 17.9773C44.1696 17.3838 43.6395 16.9161 43.03 16.5844C42.0377 16.0816 40.8417 15.9339 39.7021 16.2876C37.3896 16.9951 36.0809 19.4389 36.7686 21.7337L38.9351 28.9031L39.1272 29.5419L38.1451 30.7068L32.3919 37.5108C30.5532 39.7033 27.4621 40.079 25.4877 38.3673C23.5132 36.666 23.389 33.5147 25.2393 31.3353L30.9821 24.5196L36.7353 17.7039C38.574 15.5231 41.6651 15.1357 43.6395 16.8474C44.0237 17.1778 44.3387 17.5549 44.564 17.9773Z" fill="#19D8EA"/>
<path d="M46.5386 38.9168C44.2261 39.6359 41.8009 38.357 41.112 36.0622L39.126 29.5433L43.8983 23.8808C44.8125 22.7962 45.2402 21.4603 45.1954 20.1814C45.1723 19.4506 44.9815 18.7315 44.6307 18.0927C44.8445 18.4127 45.0148 18.7664 45.1275 19.1539L47.2941 26.3116L49.4606 33.4811C50.1482 35.7758 48.8396 38.208 46.5386 38.9155V38.9168Z" fill="white"/>
</g>
<defs>
<clipPath id="clip0_433_708">
<rect width="60" height="60" fill="white"/>
</clipPath>
</defs>
</svg>
