<svg width="139" height="34" viewBox="0 0 139 34" fill="none" xmlns="http://www.w3.org/2000/svg">
<path d="M77.0358 18.3857C77.0358 14.3104 73.6783 10.8872 69.837 10.8872C65.9956 10.8872 62.5247 13.8872 62.5247 18.9515C62.5247 23.309 65.5417 26.5911 70.4076 26.5911C72.2849 26.5911 74.249 25.856 75.2452 25.0347C75.7842 24.6115 76.0412 24.1287 76.0412 23.6491C76.0412 22.9108 75.4154 22.2337 74.5894 22.2337C74.2758 22.2337 73.9621 22.3183 73.6216 22.4876C72.9958 22.8278 72.3117 23.4782 70.2358 23.4782C68.2733 23.4782 66.3944 22.2337 65.9121 19.9124H75.3019C76.213 19.9124 76.9791 19.2901 77.0374 18.3857H77.0358ZM73.393 17.0832H65.9389C66.3928 14.7336 67.9297 13.9985 69.837 13.9985C71.6024 13.9985 73.2512 15.2697 73.393 16.8841V17.0832Z" fill="#0057FF"/>
<path d="M91.8823 5.36816C90.8861 5.36816 90.1752 6.10328 90.1752 7.09389V12.6394C89.179 11.7334 87.5586 10.8839 85.593 10.8839C81.7516 10.8839 78.7078 14.1081 78.7078 18.7492C78.7078 23.3903 81.7516 26.5878 85.7065 26.5878C87.6421 26.5878 89.3193 25.569 90.1736 24.6082C90.1736 25.569 90.8845 26.3057 91.8807 26.3057C92.8769 26.3057 93.5878 25.5705 93.5878 24.5799V7.09389C93.5878 6.07507 92.8769 5.36816 91.8807 5.36816H91.8823ZM86.1368 23.4765C83.6589 23.4765 81.9818 21.4404 81.9818 18.7507C81.9818 16.0611 83.6589 13.9983 86.1368 13.9983C88.6147 13.9983 90.3171 16.0642 90.3171 18.7507C90.3171 21.4373 88.6399 23.4765 86.1368 23.4765Z" fill="#0057FF"/>
<path d="M98.7975 11.1693C97.7997 11.1693 97.0888 11.9029 97.0888 12.8951V24.5801C97.0888 25.5707 97.7997 26.3058 98.7975 26.3058C99.7952 26.3058 100.505 25.5707 100.505 24.5801V12.8951C100.505 11.9029 99.7937 11.1693 98.7975 11.1693ZM98.7975 5.9624C97.5727 5.9624 97.0037 6.30253 97.0037 7.37778V7.9154C97.0037 8.96086 97.4876 9.3292 98.7659 9.3292C100.044 9.3292 100.587 9.01729 100.587 7.9154V7.37778C100.587 6.33074 100.104 5.9624 98.7959 5.9624H98.7975Z" fill="#0057FF"/>
<path d="M114.024 23.1947H108.077L114.905 14.3937C115.334 13.8843 115.361 13.5175 115.389 13.1492C115.474 12.1883 114.763 11.4517 113.881 11.4517H105.117C104.207 11.4517 103.525 12.1006 103.525 12.9799C103.525 13.8592 104.209 14.5645 105.117 14.5645H110.638L103.865 23.2778C103.409 23.8436 103.351 24.212 103.324 24.7778C103.296 25.4581 103.893 26.306 104.861 26.306H114.024C114.935 26.306 115.616 25.6273 115.616 24.7496C115.616 23.8718 114.934 23.1947 114.024 23.1947Z" fill="#0057FF"/>
<path d="M119.92 11.1693C118.924 11.1693 118.211 11.9029 118.211 12.8951V24.5801C118.211 25.5707 118.924 26.3058 119.92 26.3058C120.916 26.3058 121.627 25.5707 121.627 24.5801V12.8951C121.627 11.9029 120.916 11.1693 119.92 11.1693ZM119.92 5.9624C118.695 5.9624 118.126 6.30253 118.126 7.37778V7.9154C118.126 8.96086 118.61 9.3292 119.891 9.3292C121.173 9.3292 121.712 9.01729 121.712 7.9154V7.37778C121.712 6.33074 121.228 5.9624 119.92 5.9624Z" fill="#0057FF"/>
<path d="M133.582 10.8857C131.42 10.8857 129.741 12.1883 128.86 13.3764V12.8952C128.86 11.903 128.149 11.1694 127.151 11.1694C126.153 11.1694 125.444 11.903 125.444 12.8952V24.5802C125.444 25.5708 126.155 26.3059 127.151 26.3059C128.147 26.3059 128.86 25.5708 128.86 24.5802V17.3372C128.86 15.4971 130.111 13.9986 132.388 13.9986C134.664 13.9986 135.289 15.4971 135.289 17.3372V24.5802C135.289 25.5708 136 26.3059 136.997 26.3059C137.993 26.3059 138.705 25.5708 138.705 24.5802V17.3372C138.705 13.8011 137.766 10.8857 133.584 10.8857H133.582Z" fill="#0057FF"/>
<path d="M29.634 6.48591C29.634 6.47024 29.634 6.453 29.634 6.43732C29.6356 6.32604 29.634 6.21475 29.6324 6.10346C29.5584 4.36364 28.838 2.70218 27.4651 1.53759C26.3396 0.583037 24.9525 0.108111 23.5307 0.0845998C23.4172 0.0783301 23.3037 0.0751953 23.1887 0.0751953C21.5399 0.0751953 20.0361 0.691188 18.8965 1.70374C18.5276 1.99841 18.1793 2.33384 17.8593 2.70688L9.9291 11.9468L9.87078 11.8982L1.83181 21.2635C-0.746962 24.2682 -0.578302 28.5927 2.18174 30.936C2.18647 30.9407 2.1912 30.9438 2.19593 30.9485C2.20066 30.9532 2.20539 30.9564 2.21012 30.9611C3.51527 32.0692 5.17192 32.5332 6.827 32.3952C8.20939 32.3247 9.47513 31.8184 10.4918 31.0159C10.9679 30.6695 11.4139 30.262 11.8175 29.7918L11.8443 29.7604L13.8083 27.472L19.8091 20.4798L27.8119 11.1552C28.373 10.5016 28.8018 9.78375 29.1028 9.03452C29.4433 8.25395 29.634 7.39188 29.634 6.48591Z" fill="#0057FF"/>
<path d="M27.6261 32.5724C31.1866 32.5724 34.073 29.7022 34.073 26.1617C34.073 22.6212 31.1866 19.751 27.6261 19.751C24.0655 19.751 21.1792 22.6212 21.1792 26.1617C21.1792 29.7022 24.0655 32.5724 27.6261 32.5724Z" fill="#0057FF"/>
<path d="M57.1575 26.1928C57.1575 26.1802 57.1575 26.1708 57.1559 26.163C57.1559 26.1473 57.1543 26.1301 57.1527 26.1144C57.1527 26.0831 57.1496 26.0517 57.148 26.0204C57.148 26.0047 57.148 25.989 57.1449 25.9718C57.1449 25.9577 57.1417 25.9451 57.1401 25.931C57.096 25.3432 56.9715 24.779 56.7729 24.2492V24.2413C56.7729 24.2413 56.7681 24.2382 56.7681 24.2366L53.871 14.4858L50.8414 4.64556C50.7027 4.1769 50.5041 3.74743 50.255 3.35244C50.2345 3.31952 50.214 3.28974 50.1935 3.25683C50.1793 3.23645 50.1683 3.21764 50.1525 3.19727C50.6365 4.07188 50.9044 5.05778 50.9344 6.05779C50.9927 7.69574 50.4773 9.39952 49.3723 10.8306C49.2919 10.9356 49.2068 11.0406 49.1201 11.1425L42.443 18.9263L44.8232 26.9012V26.9059C45.0896 30.0564 47.7424 32.5314 50.9785 32.5314C54.2146 32.5314 56.8643 30.0596 57.1323 26.9122C57.1323 26.8997 57.1354 26.8887 57.137 26.8777C57.1386 26.8605 57.1401 26.8433 57.1401 26.8276C57.1449 26.7884 57.1464 26.7492 57.148 26.71C57.1496 26.6771 57.1512 26.6458 57.1512 26.6128C57.1543 26.5501 57.1559 26.4859 57.1559 26.4232V26.3871C57.1559 26.3229 57.1543 26.2586 57.1527 26.1943L57.1575 26.1928Z" fill="#19D8EA" stroke="#19D8EA" stroke-width="0.553785" stroke-miterlimit="10"/>
<path d="M50.1952 3.25385C50.181 3.23347 50.17 3.21466 50.1542 3.19428C49.5994 2.39647 48.7387 1.55634 47.9065 1.11119C46.5162 0.421531 44.8438 0.217767 43.2502 0.702098C40.0157 1.67546 38.1841 5.03443 39.1472 8.18963L39.9889 10.931L42.1767 18.0455L42.4447 18.9233L41.0718 20.5236L33.0218 29.8779C32.6955 30.2588 32.3424 30.6005 31.9673 30.9014C31.9625 30.903 31.9594 30.9061 31.9578 30.9093C30.2397 32.2792 28.077 32.7996 26.113 32.3936H26.1114C25.1152 32.1883 24.1726 31.7447 23.3624 31.0535C21.9453 29.8528 21.2092 28.1271 21.1793 26.3262C21.1777 26.2697 21.1777 26.2164 21.1777 26.16C21.1777 26.124 21.1777 26.0895 21.1793 26.0534C21.1856 25.7494 21.214 25.4437 21.2597 25.1381C21.2612 25.124 21.2644 25.1098 21.266 25.0957C21.2802 25.0189 21.2928 24.9453 21.3085 24.8685C21.545 23.6396 22.114 22.4327 23.0156 21.3857L31.0483 12.0157L39.0983 2.64569C41.6708 -0.351204 45.996 -0.884124 48.7577 1.46856C49.229 1.86512 49.7334 2.48738 50.0644 3.02657C50.1117 3.10337 50.1542 3.17704 50.1936 3.25071L50.1952 3.25385Z" fill="#0057FF"/>
</svg>
