<svg width="47" height="27" viewBox="0 0 47 27" fill="none" xmlns="http://www.w3.org/2000/svg">
<path d="M22.3805 9.30879L15.9313 16.9554L7.91016 10.0274L14.3594 2.38084C16.4163 -0.0584758 19.8877 -0.487912 22.1005 1.42264C23.2062 2.37792 23.7864 3.74072 23.8471 5.16633C23.8889 6.59487 23.4111 8.08913 22.382 9.30879H22.3805Z" fill="white"/>
<path d="M15.9314 16.9554L9.49077 24.5917C7.42522 27.0413 3.96244 27.4605 1.74966 25.5499C-0.463117 23.6394 -0.597356 20.1133 1.46963 17.6638L7.91022 10.0274L15.9314 16.9554Z" fill="white"/>
<path d="M40.303 2.6423C39.8584 1.97331 39.2608 1.44601 38.5737 1.07208C37.4551 0.505339 36.1069 0.338823 34.8223 0.737585C32.2154 1.53511 30.7402 4.28993 31.5154 6.87677L33.9576 14.9586L34.1742 15.6788L33.067 16.9919L26.5817 24.6619C24.509 27.1333 21.0245 27.5569 18.7988 25.6274C16.573 23.7095 16.433 20.1572 18.5187 17.7003L24.9925 10.0172L31.4778 2.3341C33.5506 -0.124207 37.035 -0.560947 39.2608 1.36859C39.6938 1.74106 40.0489 2.16612 40.303 2.6423Z" fill="white"/>
<path d="M42.5289 26.2467C39.922 27.0573 37.1882 25.6157 36.4116 23.0288L34.1729 15.6802L39.5525 9.29709C40.5831 8.07452 41.0652 6.56857 41.0147 5.12689C40.9887 4.30307 40.7737 3.4924 40.3782 2.77229C40.6192 3.13308 40.8112 3.53184 40.9382 3.96858L43.3805 12.0373L45.8228 20.1192C46.5979 22.706 45.1227 25.4477 42.5289 26.2452V26.2467Z" fill="white"/>
</svg>
